Coordinates
version=1
nRows=21
nColumns=19
inDegrees=yes

Units are S.I. units (second, meters, Newtons, ...)
If the header above contains a line with 'inDegrees', this indicates whether rotational values are in degrees (yes) or radians (no).

endheader
time	pelvis_tilt	pelvis_list	pelvis_rotation	pelvis_tx	pelvis_ty	pelvis_tz	hip_flexion_r	hip_adduction_r	hip_rotation_r	knee_angle_r	knee_angle_r_beta	ankle_angle_r	hip_flexion_l	hip_adduction_l	hip_rotation_l	knee_angle_l	knee_angle_l_beta	ankle_angle_l
     16.70666667	     -2.89504034	      3.17675798	      2.57779731	      1.84870177	      0.99035670	      0.97487259	    -18.36355858	    -11.18726468	    -28.84409181	     41.02731333	      0.71606170	    -17.86711548	     24.02266372	      2.62856680	    -16.84340725	     19.35051194	      0.33773015	     -6.72635114
     16.71333333	     -2.16787213	      3.86604351	      2.78329004	      1.84908868	      0.98712493	      0.97284978	    -18.41519818	    -12.74371074	    -29.20153921	     44.67556921	      0.77973578	    -17.19268888	     22.91245950	      3.40236677	    -17.20064295	     20.63189942	      0.36009458	     -5.12233232
     16.72000000	     -1.48376251	      4.67618662	      2.88840665	      1.84923574	      0.98355528	      0.97092987	    -18.24309528	    -14.49845205	    -29.32624495	     48.52095356	      0.84685040	    -16.40216835	     21.81302927	      4.26797269	    -17.64516352	     22.02976358	      0.38449191	     -3.30308357
     16.72666667	     -0.88265654	      5.59754295	      2.88000818	      1.84898711	      0.97975890	      0.96919118	    -17.74121422	    -16.35500420	    -28.99742522	     52.51075242	      0.91648552	    -15.57044606	     20.76807110	      5.25481811	    -18.04357362	     23.42972828	      0.40892590	     -1.36075189
     16.73333333	     -0.22452048	      6.50641834	      3.06888899	      1.84838299	      0.97576654	      0.96735647	    -17.21848056	    -18.01883623	    -28.53872750	     56.47511184	      0.98567665	    -14.59676525	     19.74524964	      6.29114473	    -18.11011761	     25.07034803	      0.43756012	      0.96264006
     16.74000000	      0.10584842	      7.51625933	      3.04466277	      1.84731135	      0.97139288	      0.96584282	    -15.97445329	    -19.81916299	    -27.50809300	     60.64226184	      1.05840713	    -13.58421049	     19.07169538	      7.38093715	    -18.37928467	     26.63295901	      0.46483282	      3.11028157
     16.74666667	      0.58501608	      8.44614878	      3.22239642	      1.84583291	      0.96713273	      0.96433436	    -14.82723694	    -21.35301189	    -26.48280742	     64.69262242	      1.12909926	    -12.50417010	     18.33184899	      8.40649979	    -18.35448195	     28.37290457	      0.49520060	      5.40973770
     16.75333333	      0.72170210	      9.37893042	      3.28849796	      1.84397193	      0.96264603	      0.96308139	    -12.96028488	    -22.76742156	    -24.85110861	     68.78035916	      1.20044373	    -11.41670376	     17.97493975	      9.41677274	    -18.36170337	     30.03607553	      0.52422841	      7.62129443
     16.76000000	      1.29933527	     10.18459059	      3.62285701	      1.84183040	      0.95883364	      0.96180434	    -11.67641827	    -23.83477430	    -23.56005790	     72.55702249	      1.26635894	    -10.32871001	     17.16286398	     10.34009322	    -17.91524604	     31.75025917	      0.55414656	      9.92613969
     16.76666667	      0.87772779	     10.95262177	      3.54134938	      1.83930900	      0.95414665	      0.96104241	     -8.60134964	    -24.83314355	    -21.06836307	     76.55136251	      1.33607332	     -9.24671559	     17.51641100	     11.07459016	    -18.04700863	     33.42988798	      0.58346161	     11.67239777
     16.77333333	      0.81900093	     11.60379222	      3.64053391	      1.83665624	      0.95022610	      0.96028286	     -6.00322262	    -25.51064793	    -18.86567106	     80.18835458	      1.39955081	     -8.23064734	     17.42295849	     11.73849266	    -17.77671013	     35.01135484	      0.61106342	     13.43203829
     16.78000000	      0.66772823	     12.15519382	      3.67683290	      1.83387115	      0.94655121	      0.95972423	     -3.14040833	    -25.95689463	    -16.49011503	     83.61916830	      1.45942980	     -7.25211645	     17.40269067	     12.26862372	    -17.50485262	     36.49254200	      0.63691501	     14.98639342
     16.78666667	      0.47221058	     12.55610017	      3.64702294	      1.83103591	      0.94327890	      0.95932825	     -0.10108684	    -26.10141987	    -13.98918041	     86.79352683	      1.51483281	     -6.34529416	     17.37009815	     12.63885253	    -17.16302330	     37.82371146	      0.66014830	     16.35179664
     16.79333333	      0.34006733	     12.94368925	      3.48573264	      1.82821084	      0.94045721	      0.95913506	      2.95685290	    -26.13662816	    -11.42547792	     89.69280494	      1.56543476	     -5.46511875	     17.17699463	     12.95894476	    -16.91853760	     38.94926077	      0.67979284	     17.49153121
     16.80000000	     -0.04181555	     13.05772004	      3.25083643	      1.82535153	      0.93788811	      0.95907931	      6.41201552	    -25.70057518	     -8.73836829	     92.30748335	      1.61106951	     -4.80993283	     17.18794108	     12.99030508	    -16.65918523	     39.93791720	      0.69704815	     18.50682389
     16.80666667	     -0.33744972	     13.10840345	      2.91027206	      1.82257413	      0.93582021	      0.95918993	      9.76274707	    -25.09251754	     -6.13392441	     94.59277017	      1.65095529	     -4.17269478	     16.99567403	     12.93264114	    -16.48300137	     40.72233904	      0.71073890	     19.34392513
     16.81333333	     -0.70099173	     13.03673698	      2.50984013	      1.81987188	      0.93412203	      0.95940743	     13.15196524	    -24.24420846	     -3.64741708	     96.54705484	      1.68506399	     -3.63343381	     16.77220117	     12.74151529	    -16.36204982	     41.32799692	      0.72130962	     20.04755260
     16.82000000	     -0.92008873	     12.87938261	      1.95697427	      1.81730040	      0.93309794	      0.95983675	     16.32576986	    -23.19825600	     -1.28187527	     98.11988091	      1.71251498	     -3.22389562	     16.25060651	     12.44235582	    -16.37608613	     41.66088849	      0.72711967	     20.61871705
     16.82666667	     -1.04191435	     12.60325359	      1.33474876	      1.81491366	      0.93263609	      0.96039242	     19.25089718	    -21.95191157	      0.82915880	     99.30799020	      1.73325140	     -2.87802262	     15.49802706	     12.01242931	    -16.48032893	     41.79788562	      0.72951072	     21.06778181
     16.83333333	     -1.29278562	     12.23458791	      0.76103223	      1.81273503	      0.93253358	      0.96091733	     22.13767964	    -20.60752014	      2.61311761	    100.12977048	      1.74759417	     -2.60544795	     14.75519645	     11.53039099	    -16.56796502	     41.72166821	      0.72818048	     21.41595924
     16.84000000	     -1.60216975	     11.80034045	      0.19739835	      1.81062390	      0.93273660	      0.96148581	     24.94299903	    -19.18413607	      4.11832392	    100.61840425	      1.75612244	     -2.39885747	     13.99569625	     10.99687984	    -16.68265034	     41.52074863	      0.72467377	     21.59941162
